<svg width="30" height="29" viewBox="0 0 30 29" fill="none" xmlns="http://www.w3.org/2000/svg">
<path d="M15 28.8222C23.2843 28.8222 30 22.405 30 14.4889C30 6.5728 23.2843 0.155548 15 0.155548C6.71573 0.155548 0 6.5728 0 14.4889C0 22.405 6.71573 28.8222 15 28.8222Z" fill="white"/>
<path d="M15 28.1056C22.8701 28.1056 29.25 22.0092 29.25 14.4889C29.25 6.96861 22.8701 0.872223 15 0.872223C7.12994 0.872223 0.75 6.96861 0.75 14.4889C0.75 22.0092 7.12994 28.1056 15 28.1056Z" stroke="#00C41E" stroke-width="1.5"/>
<path d="M15 8.75555V21.1778" stroke="#00C41E" stroke-width="1.5"/>
<path d="M21.5 14.9667H8.5" stroke="#00C41E" stroke-width="1.5"/>
</svg>
