<svg width="20" height="20" viewBox="0 0 20 20" fill="none" xmlns="http://www.w3.org/2000/svg">
<path d="M3.103 3.62812H16.897C17.378 3.59061 17.8545 3.74394 18.2233 4.05496C18.5921 4.36598 18.8237 4.80968 18.868 5.29012V16.9281C18.8237 17.4086 18.5921 17.8523 18.2233 18.1633C17.8545 18.4743 17.378 18.6276 16.897 18.5901H3.103C2.62199 18.6276 2.14555 18.4743 1.77671 18.1633C1.40786 17.8523 1.17627 17.4086 1.132 16.9281V5.29012C1.17627 4.80968 1.40786 4.36598 1.77671 4.05496C2.14555 3.74394 2.62199 3.59061 3.103 3.62812V3.62812Z" stroke="white" stroke-linecap="round" stroke-linejoin="round"/>
<path d="M13.941 0.672119V5.40012" stroke="white" stroke-linecap="round" stroke-linejoin="round"/>
<path d="M6.058 0.672119V5.40012" stroke="white" stroke-linecap="round" stroke-linejoin="round"/>
<path d="M1.132 9.66211H18.867" stroke="white" stroke-linecap="round" stroke-linejoin="round"/>
</svg>
